<?xml version="1.0" encoding="utf-8"?>
<svg version="1.1" xmlns:xlink="http://www.w3.org/1999/xlink" width="13px" height="14px" xmlns="http://www.w3.org/2000/svg">
  <g transform="matrix(1 0 0 1 -808 -1139 )">
    <path d="M 6.5 13.375  C 6.58333333333333 13.375  6.625 13.3333333333333  6.625 13.25  C 6.625 13.1666666666667  6.58333333333333 13.125  6.5 13.125  C 6.19270833333333 13.125  5.92838541666667 13.0143229166667  5.70703125 12.79296875  C 5.48567708333333 12.5716145833333  5.375 12.3072916666667  5.375 12  C 5.375 11.9166666666667  5.33333333333333 11.875  5.25 11.875  C 5.16666666666667 11.875  5.125 11.9166666666667  5.125 12  C 5.125 12.3802083333333  5.25911458333333 12.7044270833333  5.52734375 12.97265625  C 5.79557291666667 13.2408854166667  6.11979166666667 13.375  6.5 13.375  Z M 12.2890625 10.3125  C 12.5026041666667 10.5520833333333  12.7395833333333 10.78125  13 11  C 13 11.2708333333333  12.9010416666667 11.5052083333333  12.703125 11.703125  C 12.5052083333333 11.9010416666667  12.2708333333333 12  12 12  L 8.5 12  C 8.5 12.5520833333333  8.3046875 13.0234375  7.9140625 13.4140625  C 7.5234375 13.8046875  7.05208333333333 14  6.5 14  C 5.94791666666667 14  5.4765625 13.8046875  5.0859375 13.4140625  C 4.6953125 13.0234375  4.5 12.5520833333333  4.5 12  L 1 12  C 0.729166666666667 12  0.494791666666667 11.9010416666667  0.296875 11.703125  C 0.0989583333333334 11.5052083333333  0 11.2708333333333  0 11  C 0.260416666666667 10.78125  0.497395833333333 10.5520833333333  0.7109375 10.3125  C 0.924479166666667 10.0729166666667  1.14583333333333 9.76171875  1.375 9.37890625  C 1.60416666666667 8.99609375  1.79817708333333 8.58333333333333  1.95703125 8.140625  C 2.11588541666667 7.69791666666667  2.24609375 7.16145833333333  2.34765625 6.53125  C 2.44921875 5.90104166666667  2.5 5.22395833333333  2.5 4.5  C 2.5 3.70833333333333  2.8046875 2.97265625  3.4140625 2.29296875  C 4.0234375 1.61328125  4.82291666666667 1.20052083333333  5.8125 1.0546875  C 5.77083333333333 0.955729166666665  5.75 0.854166666666667  5.75 0.75  C 5.75 0.541666666666666  5.82291666666667 0.364583333333333  5.96875 0.21875  C 6.11458333333333 0.0729166666666672  6.29166666666667 0  6.5 0  C 6.70833333333333 0  6.88541666666667 0.0729166666666672  7.03125 0.21875  C 7.17708333333333 0.364583333333333  7.25 0.541666666666666  7.25 0.75  C 7.25 0.854166666666667  7.22916666666667 0.955729166666665  7.1875 1.0546875  C 8.17708333333333 1.20052083333333  8.9765625 1.61328125  9.5859375 2.29296875  C 10.1953125 2.97265625  10.5 3.70833333333333  10.5 4.5  C 10.5 5.22395833333333  10.55078125 5.90104166666667  10.65234375 6.53125  C 10.75390625 7.16145833333333  10.8841145833333 7.69791666666667  11.04296875 8.140625  C 11.2018229166667 8.58333333333333  11.3958333333333 8.99609375  11.625 9.37890625  C 11.8541666666667 9.76171875  12.0755208333333 10.0729166666667  12.2890625 10.3125  Z " fill-rule="nonzero" fill="#000000" stroke="none" transform="matrix(1 0 0 1 808 1139 )" />
  </g>
</svg>