<?xml version="1.0" encoding="utf-8"?>
<svg version="1.1" xmlns:xlink="http://www.w3.org/1999/xlink" width="7px" height="14px" xmlns="http://www.w3.org/2000/svg">
  <g transform="matrix(1 0 0 1 -809 -1206 )">
    <path d="M 4.7373046875 6.31640625  C 5.0791015625 5.86067708333333  5.25 5.31076388888889  5.25 4.66666666666667  C 5.25 4.02256944444444  5.0791015625 3.47265625  4.7373046875 3.01692708333333  C 4.3955078125 2.56119791666667  3.98307291666667 2.33333333333333  3.5 2.33333333333333  C 3.01692708333333 2.33333333333333  2.6044921875 2.56119791666667  2.2626953125 3.01692708333333  C 1.9208984375 3.47265625  1.75 4.02256944444444  1.75 4.66666666666667  C 1.75 5.31076388888889  1.9208984375 5.86067708333333  2.2626953125 6.31640625  C 2.6044921875 6.77213541666667  3.01692708333333 7  3.5 7  C 3.98307291666667 7  4.3955078125 6.77213541666667  4.7373046875 6.31640625  Z M 5.974609375 1.3671875  C 6.658203125 2.27864583333333  7 3.37847222222222  7 4.66666666666667  C 7 5.32899305555555  6.9248046875 5.87282986111111  6.7744140625 6.29817708333333  L 4.2861328125 13.3528645833333  C 4.21321614583333 13.5533854166667  4.10498046875 13.7113715277778  3.96142578125 13.8268229166667  C 3.81787109375 13.9422743055556  3.6640625 14  3.5 14  C 3.3359375 14  3.18212890625 13.9422743055556  3.03857421875 13.8268229166667  C 2.89501953125 13.7113715277778  2.7890625 13.5533854166667  2.720703125 13.3528645833333  L 0.2255859375 6.29817708333333  C 0.0751953125 5.87282986111111  0 5.32899305555555  0 4.66666666666667  C 0 3.37847222222222  0.341796875 2.27864583333333  1.025390625 1.3671875  C 1.708984375 0.455729166666667  2.53385416666667 0  3.5 0  C 4.46614583333333 0  5.291015625 0.455729166666667  5.974609375 1.3671875  Z " fill-rule="nonzero" fill="#000000" stroke="none" transform="matrix(1 0 0 1 809 1206 )" />
  </g>
</svg>