<?xml version="1.0" encoding="utf-8"?>
<svg version="1.1" xmlns:xlink="http://www.w3.org/1999/xlink" width="14px" height="16px" xmlns="http://www.w3.org/2000/svg">
  <g transform="matrix(1 0 0 1 -2210 -661 )">
    <path d="M 9.474609375 7.21875  C 10.158203125 6.69791666666667  10.5 6.06944444444444  10.5 5.33333333333333  C 10.5 4.59722222222222  10.158203125 3.96875  9.474609375 3.44791666666667  C 8.791015625 2.92708333333333  7.96614583333333 2.66666666666667  7 2.66666666666667  C 6.03385416666667 2.66666666666667  5.208984375 2.92708333333333  4.525390625 3.44791666666667  C 3.841796875 3.96875  3.5 4.59722222222222  3.5 5.33333333333333  C 3.5 6.06944444444444  3.841796875 6.69791666666667  4.525390625 7.21875  C 5.208984375 7.73958333333333  6.03385416666667 8  7 8  C 7.96614583333333 8  8.791015625 7.73958333333333  9.474609375 7.21875  Z M 11.94921875 1.5625  C 13.31640625 2.60416666666667  14 3.86111111111111  14 5.33333333333333  C 14 6.09027777777778  13.849609375 6.71180555555556  13.548828125 7.19791666666667  L 8.572265625 15.2604166666667  C 8.42643229166667 15.4895833333333  8.2099609375 15.6701388888889  7.9228515625 15.8020833333333  C 7.6357421875 15.9340277777778  7.328125 16  7 16  C 6.671875 16  6.3642578125 15.9340277777778  6.0771484375 15.8020833333333  C 5.7900390625 15.6701388888889  5.578125 15.4895833333333  5.44140625 15.2604166666667  L 0.451171875 7.19791666666667  C 0.150390625 6.71180555555556  0 6.09027777777778  0 5.33333333333333  C 0 3.86111111111111  0.68359375 2.60416666666667  2.05078125 1.5625  C 3.41796875 0.520833333333334  5.06770833333333 0  7 0  C 8.93229166666667 0  10.58203125 0.520833333333334  11.94921875 1.5625  Z " fill-rule="nonzero" fill="#000000" stroke="none" transform="matrix(1 0 0 1 2210 661 )" />
  </g>
</svg>