<?xml version="1.0" encoding="utf-8"?>
<svg version="1.1" xmlns:xlink="http://www.w3.org/1999/xlink" width="11px" height="14px" xmlns="http://www.w3.org/2000/svg">
  <g transform="matrix(1 0 0 1 -808 -1173 )">
    <path d="M 10.9765625 10.8480113636364  C 10.9921875 10.8944128787879  11 10.9640151515151  11 11.0568181818182  C 11 11.2357954545455  10.9739583333333 11.4694602272727  10.921875 11.7578125  C 10.8697916666667 12.0461647727273  10.8151041666667 12.2732007575758  10.7578125 12.4389204545455  C 10.6484375 12.7703598484848  10.3307291666667 13.1216856060606  9.8046875 13.4928977272727  C 9.31510416666667 13.8309659090909  8.83072916666667 14  8.3515625 14  C 8.2109375 14  8.07291666666667 13.9883996212121  7.9375 13.9651988636364  C 7.80208333333333 13.9419981060606  7.65234375 13.9005681818182  7.48828125 13.8409090909091  C 7.32421875 13.78125  7.20182291666667 13.7331912878788  7.12109375 13.6967329545455  C 7.04036458333333 13.6602746212121  6.89583333333333 13.5923295454545  6.6875 13.4928977272727  C 6.47916666666667 13.3934659090909  6.3515625 13.3338068181818  6.3046875 13.3139204545455  C 5.79427083333333 13.0819128787879  5.33854166666667 12.8068181818182  4.9375 12.4886363636364  C 4.27604166666667 11.9649621212121  3.58854166666667 11.249053030303  2.875 10.3409090909091  C 2.16145833333333 9.43276515151515  1.59895833333333 8.55776515151515  1.1875 7.71590909090909  C 0.9375 7.20549242424242  0.721354166666667 6.62547348484848  0.5390625 5.97585227272727  C 0.5234375 5.91619318181818  0.4765625 5.75378787878788  0.3984375 5.48863636363636  C 0.3203125 5.22348484848485  0.266927083333333 5.03953598484848  0.23828125 4.93678977272727  C 0.209635416666667 4.83404356060606  0.171875 4.67826704545454  0.125 4.46946022727273  C 0.078125 4.26065340909091  0.0455729166666667 4.07007575757576  0.02734375 3.89772727272727  C 0.00911458333333333 3.72537878787879  0 3.54971590909091  0 3.37073863636364  C 0 2.76089015151515  0.1328125 2.14441287878788  0.3984375 1.52130681818182  C 0.690104166666667 0.85179924242424  0.966145833333333 0.447443181818182  1.2265625 0.308238636363636  C 1.35677083333333 0.235321969696969  1.53515625 0.165719696969695  1.76171875 0.0994318181818179  C 1.98828125 0.0331439393939388  2.171875 0  2.3125 0  C 2.38541666666667 0  2.44010416666667 0.0099431818181821  2.4765625 0.0298295454545447  C 2.5703125 0.0696022727272732  2.70833333333333 0.321496212121212  2.890625 0.785511363636364  C 2.94791666666667 0.911458333333331  3.02604166666667 1.0904356060606  3.125 1.32244318181818  C 3.22395833333333 1.55445075757576  3.31510416666667 1.76491477272727  3.3984375 1.95383522727273  C 3.48177083333333 2.14275568181818  3.5625 2.32007575757576  3.640625 2.48579545454546  C 3.65625 2.5123106060606  3.70182291666667 2.59517045454546  3.77734375 2.734375  C 3.85286458333333 2.87357954545454  3.90885416666667 2.99124053030303  3.9453125 3.08735795454546  C 3.98177083333333 3.18347537878788  4 3.2779356060606  4 3.37073863636364  C 4 3.50331439393939  3.92578125 3.66903409090909  3.77734375 3.86789772727273  C 3.62890625 4.06676136363636  3.46744791666667 4.24905303030303  3.29296875 4.41477272727273  C 3.11848958333333 4.58049242424242  2.95703125 4.7561553030303  2.80859375 4.94176136363636  C 2.66015625 5.12736742424242  2.5859375 5.27982954545454  2.5859375 5.39914772727273  C 2.5859375 5.45880681818182  2.59895833333333 5.53338068181818  2.625 5.62286931818182  C 2.65104166666667 5.71235795454546  2.67317708333333 5.78030303030303  2.69140625 5.82670454545454  C 2.70963541666667 5.87310606060606  2.74609375 5.95265151515151  2.80078125 6.06534090909091  C 2.85546875 6.1780303030303  2.88541666666667 6.24100378787879  2.890625 6.25426136363636  C 3.28645833333333 7.1624053030303  3.73958333333333 7.94128787878788  4.25 8.59090909090909  C 4.76041666666667 9.2405303030303  5.37239583333333 9.81723484848485  6.0859375 10.3210227272727  C 6.09635416666667 10.3276515151515  6.14583333333333 10.3657670454545  6.234375 10.4353693181818  C 6.32291666666667 10.5049715909091  6.38541666666667 10.5513731060606  6.421875 10.5745738636364  C 6.45833333333333 10.5977746212121  6.51171875 10.625946969697  6.58203125 10.6590909090909  C 6.65234375 10.6922348484848  6.7109375 10.7088068181818  6.7578125 10.7088068181818  C 6.8515625 10.7088068181818  6.97135416666667 10.6143465909091  7.1171875 10.4254261363636  C 7.26302083333333 10.2365056818182  7.40104166666667 10.0310132575758  7.53125 9.80894886363636  C 7.66145833333333 9.58688446969697  7.8046875 9.38139204545455  7.9609375 9.19247159090909  C 8.1171875 9.00355113636364  8.24739583333333 8.90909090909091  8.3515625 8.90909090909091  C 8.42447916666667 8.90909090909091  8.49869791666667 8.93229166666667  8.57421875 8.97869318181818  C 8.64973958333333 9.0250946969697  8.7421875 9.09635416666667  8.8515625 9.19247159090909  C 8.9609375 9.28858901515151  9.02604166666667 9.34659090909091  9.046875 9.36647727272727  C 9.17708333333333 9.46590909090909  9.31640625 9.5686553030303  9.46484375 9.67471590909091  C 9.61328125 9.78077651515151  9.77864583333333 9.8967803030303  9.9609375 10.0227272727273  C 10.1432291666667 10.1486742424242  10.2838541666667 10.2481060606061  10.3828125 10.3210227272727  C 10.7473958333333 10.5530303030303  10.9453125 10.7286931818182  10.9765625 10.8480113636364  Z " fill-rule="nonzero" fill="#000000" stroke="none" transform="matrix(1 0 0 1 808 1173 )" />
  </g>
</svg>